<?xml version="1.0" encoding="UTF-8" standalone="no"?>
<!-- Created with Inkscape (http://www.inkscape.org/) -->

<svg
   xmlns:dc="http://purl.org/dc/elements/1.1/"
   xmlns:cc="http://creativecommons.org/ns#"
   xmlns:rdf="http://www.w3.org/1999/02/22-rdf-syntax-ns#"
   xmlns:svg="http://www.w3.org/2000/svg"
   xmlns="http://www.w3.org/2000/svg"
   xmlns:sodipodi="http://sodipodi.sourceforge.net/DTD/sodipodi-0.dtd"
   xmlns:inkscape="http://www.inkscape.org/namespaces/inkscape"
   width="45mm"
   height="60mm"
   viewBox="0 0 45 60"
   version="1.1"
   id="svg8"
   inkscape:version="0.92.2 (5c3e80d, 2017-08-06)"
   sodipodi:docname="glass1.svg">
  <defs
     id="defs2">
    <inkscape:perspective
       sodipodi:type="inkscape:persp3d"
       inkscape:vp_x="0 : 40.000002 : 1"
       inkscape:vp_y="0 : 1000 : 0"
       inkscape:vp_z="80.000004 : 40.000002 : 1"
       inkscape:persp3d-origin="40.000002 : 26.666668 : 1"
       id="perspective38" />
  </defs>
  <sodipodi:namedview
     id="base"
     pagecolor="#ffffff"
     bordercolor="#666666"
     borderopacity="1.0"
     inkscape:pageopacity="0.0"
     inkscape:pageshadow="2"
     inkscape:zoom="2.0496213"
     inkscape:cx="26.396158"
     inkscape:cy="221.42437"
     inkscape:document-units="mm"
     inkscape:current-layer="layer1"
     showgrid="false"
     inkscape:window-width="1614"
     inkscape:window-height="945"
     inkscape:window-x="1897"
     inkscape:window-y="29"
     inkscape:window-maximized="0" />
  <metadata
     id="metadata5">
    <rdf:RDF>
      <cc:Work
         rdf:about="">
        <dc:format>image/svg+xml</dc:format>
        <dc:type
           rdf:resource="http://purl.org/dc/dcmitype/StillImage" />
        <dc:title></dc:title>
      </cc:Work>
    </rdf:RDF>
  </metadata>
  <g
     inkscape:label="Layer 1"
     inkscape:groupmode="layer"
     id="layer1"
     transform="translate(0,-237)">
    <path
       style="fill:none;stroke:#000000;stroke-width:0.26458332px;stroke-linecap:butt;stroke-linejoin:miter;stroke-opacity:1"
       d="m 36.859205,296.89163 c 0,0 0.181959,-0.91939 -0.398941,-1.20985 l -10.435602,-3.56571 c 0,0 -0.05525,-1.15923 -0.377976,-1.41741 -0.387267,-0.48408 -1.039434,-0.75595 -1.039434,-0.75595 v -20.76082 c 0,-0.45181 0.398389,-1.76519 2.173361,-3.02381 1.678156,-1.38771 2.935017,-2.9845 3.874257,-4.81919 1.295386,-2.53039 1.278981,-5.55585 2.267858,-8.22099 0.489186,-1.31842 0.766071,-2.86375 1.802353,-3.81435 1.534934,-1.40803 4.168423,-0.95609 5.858632,-2.17337 1.46446,-1.05469 2.668469,-2.56553 3.394818,-4.21763 0.759956,-1.72854 0.990818,-5.21315 0.850446,-5.60046 -0.09016,-0.24875 -0.657386,-0.2057 -0.793523,0.0212 -0.09682,0.16136 -0.07043,3.49234 -0.753629,5.05183 -0.724189,1.65305 -1.930358,3.16294 -3.394818,4.21763 -1.690209,1.21728 -4.323698,0.76534 -5.858632,2.17337 -1.036282,0.9506 -1.313167,2.49593 -1.802353,3.81435 -0.988877,2.66514 -0.979692,5.68692 -2.267858,8.22099 -0.705616,1.38808 -1.227934,2.26968 -2.90609,3.6574 -1.774972,1.25862 -2.436294,1.05517 -4.809553,1.08606 -2.373258,-0.0337 -2.481197,0.16974 -4.256169,-1.08888 -1.678156,-1.38771 -2.200475,-2.26931 -2.90609,-3.65739 -1.288168,-2.53407 -1.278982,-5.55585 -2.267858,-8.22099 -0.489186,-1.31842 -0.766071,-2.86375 -1.802353,-3.81435 -1.5349345,-1.40803 -4.1684233,-0.95609 -5.8586325,-2.17337 -1.4644601,-1.05469 -2.6706292,-2.56458 -3.394818,-4.21763 -0.6832016,-1.55949 -0.656813,-4.89047 -0.753629,-5.05183 -0.13613701,-0.2269 -0.70336195,-0.26995 -0.79352295,-0.0212 -0.14037202,0.38731 0.0904904,3.87192 0.85044595,5.60046 0.726349,1.6521 1.9303579,3.16294 3.394818,4.21763 1.6902092,1.21728 4.323698,0.76534 5.8586325,2.17337 1.036282,0.9506 1.313167,2.49593 1.802353,3.81435 0.988876,2.66514 0.972472,5.69061 2.267858,8.22099 0.939239,1.83469 2.196101,3.43148 3.874257,4.81919 1.774972,1.25862 2.173361,2.572 2.173361,3.02381 v 20.76082 c 0,0 -0.652167,0.27187 -1.039434,0.75595 -0.322726,0.25818 -0.377976,1.41741 -0.377976,1.41741 l -10.4356025,3.56571 c -0.5809,0.29045 -0.398941,1.20985 -0.398941,1.20985 z"
       id="glass"
       inkscape:connector-curvature="0"
       sodipodi:nodetypes="cccccccaaaaassaaaaacccaaaaassaaaaacccccccc" />
    <path
       style="fill:none;stroke:#ff0000;stroke-width:0.26458332px;stroke-linecap:butt;stroke-linejoin:miter;stroke-opacity:1"
       d="m 43.972295,237.75545 c -0.0081,0.25817 -0.06439,3.20049 -0.690469,4.62966 -0.724157,1.65306 -1.930358,3.16294 -3.394818,4.21763 -1.690209,1.21728 -4.323699,0.76534 -5.858632,2.17337 -1.036283,0.9506 -1.313167,2.49593 -1.802352,3.81435 -0.988878,2.66514 -0.979694,5.68692 -2.26786,8.22099 -0.705615,1.38808 -1.227934,2.26968 -2.906089,3.6574 -1.774973,1.25862 -2.436295,1.05518 -4.809554,1.08607 -2.373258,-0.0337 -2.481197,0.16973 -4.256169,-1.08889 -1.678156,-1.38771 -2.200475,-2.26931 -2.90609,-3.65739 -1.288168,-2.53407 -1.278982,-5.55585 -2.267858,-8.22099 -0.489186,-1.31842 -0.766071,-2.86375 -1.802353,-3.81435 -1.5349342,-1.40803 -4.1684231,-0.95609 -5.8586323,-2.17337 -1.46446,-1.05469 -2.667299,-2.56604 -3.394818,-4.21763 -0.6278193,-1.42525 -0.645403,-4.10318 -0.7079892,-4.61825 12.2431975,0.0655 29.9732025,0.0114 42.9236835,-0.009 z"
       id="mask"
       inkscape:connector-curvature="0"
       sodipodi:nodetypes="caaaaacccaaaaacc" />
  </g>
</svg>
