<?xml version="1.0" encoding="UTF-8" standalone="no"?>
<!-- Created with Inkscape (http://www.inkscape.org/) -->

<svg
   xmlns:dc="http://purl.org/dc/elements/1.1/"
   xmlns:cc="http://creativecommons.org/ns#"
   xmlns:rdf="http://www.w3.org/1999/02/22-rdf-syntax-ns#"
   xmlns:svg="http://www.w3.org/2000/svg"
   xmlns="http://www.w3.org/2000/svg"
   xmlns:sodipodi="http://sodipodi.sourceforge.net/DTD/sodipodi-0.dtd"
   xmlns:inkscape="http://www.inkscape.org/namespaces/inkscape"
   width="45mm"
   height="60mm"
   viewBox="0 0 45 60"
   version="1.1"
   id="svg8"
   inkscape:version="0.92.2 (5c3e80d, 2017-08-06)"
   sodipodi:docname="glass2.svg">
  <defs
     id="defs2">
    <inkscape:perspective
       sodipodi:type="inkscape:persp3d"
       inkscape:vp_x="0 : 40.000002 : 1"
       inkscape:vp_y="0 : 1000 : 0"
       inkscape:vp_z="80.000004 : 40.000002 : 1"
       inkscape:persp3d-origin="40.000002 : 26.666668 : 1"
       id="perspective38" />
  </defs>
  <sodipodi:namedview
     id="base"
     pagecolor="#ffffff"
     bordercolor="#666666"
     borderopacity="1.0"
     inkscape:pageopacity="0.0"
     inkscape:pageshadow="2"
     inkscape:zoom="2.0496213"
     inkscape:cx="132.7375"
     inkscape:cy="128.73387"
     inkscape:document-units="mm"
     inkscape:current-layer="layer1"
     showgrid="false"
     inkscape:window-width="1614"
     inkscape:window-height="945"
     inkscape:window-x="1829"
     inkscape:window-y="23"
     inkscape:window-maximized="0" />
  <metadata
     id="metadata5">
    <rdf:RDF>
      <cc:Work
         rdf:about="">
        <dc:format>image/svg+xml</dc:format>
        <dc:type
           rdf:resource="http://purl.org/dc/dcmitype/StillImage" />
        <dc:title />
      </cc:Work>
    </rdf:RDF>
  </metadata>
  <g
     inkscape:label="Layer 1"
     inkscape:groupmode="layer"
     id="layer1"
     transform="translate(0,-237)">
    <path
       style="fill:none;stroke:#000000;stroke-width:0.26458332px;stroke-linecap:butt;stroke-linejoin:miter;stroke-opacity:1"
       d="m 29.086658,296.55503 c 0,0 1.326887,-0.0874 1.827842,-0.46759 0.439989,-0.33394 0.827404,-0.49985 0.827404,-1.43574 l 0.07384,-2.9342 0.122043,-4.62863 0.504184,-14.75783 c 0,0 0.181728,-4.038 0.258178,-6.05758 0.07383,-1.95025 0.143014,-3.90074 0.193634,-5.85172 0.05937,-2.28816 0.07132,-4.57737 0.129088,-6.86556 0.03429,-1.35798 0.107569,-2.71494 0.129089,-4.07318 0.01147,-0.72427 0,-2.17307 0,-2.17307 v -4.21763 c 0,0 0.182012,-5.21315 0.04164,-5.60046 -0.09016,-0.24875 -0.657386,-0.2057 -0.793523,0.0212 -0.09682,0.16136 -0.123427,3.36734 -0.148117,5.05183 -0.02061,1.40589 0,2.81209 0,4.21813 v 2.173 l -0.129089,4.45945 c -0.07929,2.73918 -0.482595,23.03627 -1.294132,34.52358 -0.138556,1.96125 -0.29045,4.99965 -0.609929,5.86681 -0.524858,0.84434 -5.119572,0.55326 -7.49283,0.58696 -2.373257,-0.0337 -6.967972,0.25737 -7.49283,-0.58696 -0.319479,-0.86717 -0.471373,-3.90556 -0.609929,-5.86681 -0.811538,-11.48732 -1.21484,-31.78441 -1.294132,-34.52359 L 13.2,248.95599 v -2.173 c 0,-1.40604 0.02061,-2.81224 0,-4.21813 -0.02469,-1.68449 -0.0513,-4.89047 -0.148117,-5.05183 -0.136137,-0.2269 -0.703362,-0.26995 -0.793523,-0.0212 -0.140372,0.38731 0.04164,5.60046 0.04164,5.60046 v 4.21763 c 0,0 -0.01147,1.4488 0,2.17307 0.02152,1.35824 0.0948,2.7152 0.129089,4.07318 0.05777,2.28819 0.06972,4.5774 0.129088,6.86556 0.05062,1.95098 0.119808,3.90147 0.193634,5.85172 0.07645,2.01959 0.258178,6.05758 0.258178,6.05758 l 0.504184,14.75783 0.122043,4.62864 0.07384,2.9342 c 0,0.93588 0.387415,1.1018 0.827404,1.43574 0.500956,0.38021 1.827843,0.46758 1.827843,0.46758 z"
       id="glass"
       inkscape:connector-curvature="0"
       sodipodi:nodetypes="cacccsaaaaaaccaassacccassaaccaaaaaascccacc" />
    <path
       style="fill:none;stroke:#ff0000;stroke-width:0.26458332px;stroke-linecap:butt;stroke-linejoin:miter;stroke-opacity:1"
       d="m 32.351669,238.07779 c -0.03228,0.5809 -0.08309,2.9911 -0.09971,4.48707 -0.01562,1.40596 0,2.81209 0,4.21813 v 2.173 l -0.129089,4.45945 c -0.07929,2.73918 -0.482595,23.03627 -1.294132,34.52359 -0.138556,1.96124 -0.29045,4.99964 -0.609929,5.86681 -0.524858,0.84433 -5.119572,0.55326 -7.49283,0.58696 -2.373257,-0.0337 -6.967972,0.25736 -7.49283,-0.58696 -0.319479,-0.86718 -0.471373,-3.90557 -0.609929,-5.86681 -0.811538,-11.48733 -1.21484,-31.78442 -1.294132,-34.5236 L 13.2,248.95598 v -2.173 c 0,-1.40604 0.01556,-2.81217 0,-4.21813 -0.01662,-1.50134 -0.0513,-4.18048 -0.09971,-4.5032 7.098985,0.10887 15.60373,-0.0223 19.251379,0.0161 z"
       id="mask"
       inkscape:connector-curvature="0"
       sodipodi:nodetypes="caassacccassaacc" />
  </g>
</svg>
