<?xml version="1.0" encoding="UTF-8" standalone="no"?>
<!-- Created with Inkscape (http://www.inkscape.org/) -->

<svg
   xmlns:dc="http://purl.org/dc/elements/1.1/"
   xmlns:cc="http://creativecommons.org/ns#"
   xmlns:rdf="http://www.w3.org/1999/02/22-rdf-syntax-ns#"
   xmlns:svg="http://www.w3.org/2000/svg"
   xmlns="http://www.w3.org/2000/svg"
   xmlns:sodipodi="http://sodipodi.sourceforge.net/DTD/sodipodi-0.dtd"
   xmlns:inkscape="http://www.inkscape.org/namespaces/inkscape"
   width="45mm"
   height="60mm"
   viewBox="0 0 45 60"
   version="1.1"
   id="svg8"
   inkscape:version="0.92.2 (5c3e80d, 2017-08-06)"
   sodipodi:docname="glass3.svg">
  <defs
     id="defs2">
    <inkscape:perspective
       sodipodi:type="inkscape:persp3d"
       inkscape:vp_x="0 : 40.000002 : 1"
       inkscape:vp_y="0 : 1000 : 0"
       inkscape:vp_z="80.000004 : 40.000002 : 1"
       inkscape:persp3d-origin="40.000002 : 26.666668 : 1"
       id="perspective38" />
  </defs>
  <sodipodi:namedview
     id="base"
     pagecolor="#ffffff"
     bordercolor="#666666"
     borderopacity="1.0"
     inkscape:pageopacity="0.0"
     inkscape:pageshadow="2"
     inkscape:zoom="2.0496213"
     inkscape:cx="123.33158"
     inkscape:cy="192.14937"
     inkscape:document-units="mm"
     inkscape:current-layer="glass"
     showgrid="false"
     inkscape:window-width="1614"
     inkscape:window-height="945"
     inkscape:window-x="1977"
     inkscape:window-y="52"
     inkscape:window-maximized="0" />
  <metadata
     id="metadata5">
    <rdf:RDF>
      <cc:Work
         rdf:about="">
        <dc:format>image/svg+xml</dc:format>
        <dc:type
           rdf:resource="http://purl.org/dc/dcmitype/StillImage" />
        <dc:title></dc:title>
      </cc:Work>
    </rdf:RDF>
  </metadata>
  <g
     inkscape:label="Layer 1"
     inkscape:groupmode="layer"
     id="glass"
     transform="translate(0,-237)">
    <path
       style="fill:none;stroke:#000000;stroke-width:0.26458332px;stroke-linecap:butt;stroke-linejoin:miter;stroke-opacity:1"
       d="m 33.87425,294.6311 c 5.499598,0.7074 7.056207,1.76313 7.189864,1.4886 0.104584,-0.21481 -0.576121,-1.05879 -1.028249,-1.43574 -1.586876,-1.32303 -3.999911,-1.34419 -5.606072,-2.64374 -2.390758,-1.93439 -4.67342,-4.404 -5.590139,-7.33951 -0.537007,-1.71959 -0.286415,-3.67787 0.246005,-5.39889 0.537398,-1.73711 1.587708,-3.3506 2.872228,-4.6376 1.270816,-1.27326 4.196162,-2.31928 4.582657,-2.85039 0.394866,-0.54264 1.490663,-4.8057 2.065421,-7.25284 0.691133,-2.94263 1.090479,-5.94631 1.658647,-8.91513 0.293324,-1.53269 0.629535,-3.05724 0.903622,-4.59349 0.413799,-2.31932 0.748478,-4.65207 1.118176,-6.97883 0.297764,-1.87404 1.026348,-5.23597 0.885976,-5.62328 -0.09016,-0.24875 -0.657386,-0.2057 -0.793523,0.0212 -0.09682,0.16136 -0.690668,3.37768 -0.992453,5.07465 -0.412534,2.31972 -0.704358,4.65985 -1.118176,6.97933 -0.274077,1.53623 -0.903622,4.59342 -0.903622,4.59342 l -2.013641,9.07549 c -0.59358,2.67528 -1.672795,3.73825 -2.520477,4.3168 -1.455545,0.99341 -4.175594,1.53838 -6.354385,1.92959 -1.783924,0.32079 -3.054151,0.29509 -5.427407,0.32879 -2.373257,-0.0337 -3.643483,-0.008 -5.427408,-0.32878 -2.17879,-0.39121 -4.898839,-0.93619 -6.354384,-1.9296 -0.847682,-0.57854 -1.9268966,-1.64152 -2.5204766,-4.31679 l -2.0136412,-9.07549 c 0,0 -0.6295453,-3.05719 -0.9036223,-4.59342 -0.4138178,-2.31948 -0.7056423,-4.65961 -1.1181754,-6.97933 -0.3017853,-1.69697 -0.8956366,-4.91329 -0.9924536,-5.07465 -0.136137,-0.2269 -0.703362,-0.26995 -0.793523,-0.0212 -0.140372,0.38731 0.5882118,3.74924 0.8859766,5.62328 0.3696972,2.32676 0.7043769,4.65951 1.1181754,6.97883 0.2740874,1.53625 0.6102985,3.0608 0.9036223,4.59349 0.5681678,2.96882 0.9675138,5.9725 1.6586468,8.91513 0.5747577,2.44714 1.6705546,6.7102 2.0654213,7.25283 0.3864951,0.53112 3.3118407,1.57714 4.5826567,2.8504 1.28452,1.28699 2.33483,2.90049 2.872227,4.6376 0.532421,1.72102 0.783013,3.67929 0.246006,5.39888 -0.916719,2.93551 -3.199381,5.40513 -5.590139,7.33951 -1.606161,1.29956 -4.0191957,1.32071 -5.6060716,2.64375 -0.4521287,0.37695 -1.132833,1.22093 -1.0282489,1.43574 0.1336562,0.27452 1.6902655,-0.7812 7.1898635,-1.48861 7.228978,-0.5809 11.84034,-1.1618 21.651096,0 z"
       id="path21-2-5-4"
       inkscape:connector-curvature="0"
       sodipodi:nodetypes="csaaaaasaaaaccaasssacasssaaccaaaasaaaaascc" />
    <path
       style="fill:none;stroke:#ff0000;stroke-width:0.26458332px;stroke-linecap:butt;stroke-linejoin:miter;stroke-opacity:1"
       d="m 42.281878,238.79663 c -0.06829,0.26976 -0.618766,3.16236 -0.895467,4.74947 -0.404667,2.3211 -0.704358,4.65985 -1.118176,6.97933 -0.274077,1.53623 -0.903621,4.59342 -0.903621,4.59342 l -2.013644,9.07549 c -0.593579,2.67528 -1.672793,3.73825 -2.520476,4.3168 -1.455544,0.99341 -4.175593,1.53838 -6.354384,1.92959 -1.783924,0.3208 -3.054151,0.29509 -5.427408,0.32879 -2.373256,-0.0337 -3.643483,-0.008 -5.427407,-0.32878 -2.178791,-0.39121 -4.89884,-0.93619 -6.354385,-1.9296 -0.847682,-0.57853 -1.9268962,-1.64152 -2.5204762,-4.31679 l -2.0136411,-9.07549 c 0,0 -0.6295453,-3.05719 -0.9036224,-4.59342 -0.4138178,-2.31948 -0.7099884,-4.65885 -1.1181754,-6.97933 -0.2799397,-1.59142 -0.8442918,-4.53676 -0.9125839,-4.76088 14.543458,0.0868 24.46369,0.0659 38.483467,0.0114 z"
       id="mask"
       inkscape:connector-curvature="0"
       sodipodi:nodetypes="caasssacasssaacc" />
  </g>
</svg>
