<svg xmlns="http://www.w3.org/2000/svg" viewBox="0 0 45 60">
    <g fill="none" stroke="#000" stroke-width=".265">
        <path id="glass" d="M20.23 33.297c-1-1.338-1.343-2.37-1.841-3.631-.5-1.266-.837-2.595-1.144-3.921-.346-1.501-.58-3.027-.782-4.555a54.36 54.36 0 0 1-.375-4.077c-.125-2.265-.118-4.537-.132-6.806-.019-3.162.166-9.326.07-9.487-.137-.227-.704-.27-.794-.021-.14.387-.067 6.363-.068 9.545 0 1.391-.014 2.783.03 4.174.058 1.85.107 3.705.31 5.545.22 1.996.493 3.995.981 5.943.735 2.935 1.489 6.715 2.917 8.595 1.31 1.724 1.422 3.272 1.77 5.008.466 2.33.394 4.742.396 7.118 0 2.234.188 4.528-.366 6.693-.24.94-.576 1.935-1.257 2.627-.623.633-1.559.864-2.386 1.19-1.155.454-3.572 1.058-3.572 1.058-.58.29-.399 1.21-.399 1.21h17.803s.182-.92-.399-1.21c0 0-2.417-.604-3.572-1.059-.827-.325-1.763-.556-2.386-1.189-.681-.692-1.017-1.687-1.257-2.627-.554-2.165-.367-4.459-.365-6.693 0-2.376-.07-4.788.396-7.118.348-1.736.46-3.284 1.769-5.008 1.428-1.88 2.182-5.66 2.917-8.595.488-1.948.762-3.947.982-5.943.202-1.84.252-3.695.31-5.545.043-1.391.029-2.783.029-4.174 0-3.182.073-9.158-.068-9.545-.09-.249-.657-.206-.793.02-.097.162.088 6.326.069 9.488-.014 2.27-.006 4.54-.132 6.806a54.36 54.36 0 0 1-.375 4.077c-.201 1.528-.436 3.054-.782 4.555-.307 1.326-.643 2.655-1.143 3.921-.5 1.262-.842 2.293-1.841 3.63-.41.549-1.442.96-2.26.96-.819 0-1.852-.411-2.26-.96z"/>
        <path id="mask" d="M20.23 33.297c-1-1.338-1.343-2.37-1.841-3.631-.5-1.266-.837-2.595-1.144-3.921-.346-1.501-.58-3.027-.782-4.555a54.362 54.362 0 0 1-.375-4.077c-.125-2.265-.119-4.537-.132-6.806-.017-2.929.07-8.787.07-8.787h12.903s.086 5.858.069 8.787c-.013 2.27-.006 4.54-.132 6.806a54.36 54.36 0 0 1-.375 4.077c-.2 1.528-.436 3.054-.782 4.555-.306 1.326-.643 2.655-1.143 3.921-.5 1.262-.842 2.293-1.84 3.63-.41.549-1.174 1.056-2.249.96-1.075.096-1.839-.411-2.248-.96z"/>
    </g>
</svg>