<svg xmlns="http://www.w3.org/2000/svg"  viewBox="0 0 45 60">
    <g fill="none" stroke="#000" stroke-width=".265">
        <path id="glass" d="M21.182 31.983c-.351-.576-.552-.91-.733-1.56-.374-1.347-.948-3.092-1.26-4.454-.445-1.934-.866-3.875-1.197-5.83-.345-2.039-.474-4.086-.632-6.147a41.044 41.044 0 0 1-.098-4.858c.115-2.73.948-7.99.85-8.15-.135-.228-.392-.253-.482-.005-.14.388-.757 5.375-.873 8.082-.065 1.528-.01 3.063.103 4.589.137 1.85.217 3.688.509 5.52.313 1.968.7 3.924 1.128 5.87.555 2.523 1.371 4.954 2.06 7.522.468 1.75 1.153 4.009 1.217 5.096.136 2.345.2 7.425.2 9.801.002 2.234-.085 5.953-.294 7.738-.112.964-.873 1.72-1.602 2.36-.65.572-1.33.626-2.42.8-1.227.197-3.92.27-4.167.404-.331.178-.39.744-.39.744h18.778s-.06-.566-.39-.744c-.247-.133-2.941-.207-4.168-.404-1.09-.174-1.806-.289-2.42-.8-.746-.621-1.49-1.396-1.602-2.36-.209-1.785-.296-5.504-.295-7.738.002-2.376.065-7.456.202-9.801.064-1.115.748-3.344 1.217-5.096.688-2.568 1.504-4.999 2.06-7.522.428-1.946.814-3.902 1.127-5.87.292-1.832.372-3.67.51-5.52.113-1.526.167-3.06.102-4.59-.116-2.706-.732-7.693-.873-8.08-.09-.25-.346-.224-.483.003-.096.162.736 5.422.851 8.151a41.046 41.046 0 0 1-.098 4.858c-.158 2.06-.287 4.108-.632 6.146-.331 1.956-.752 3.897-1.196 5.83-.313 1.363-.887 3.108-1.261 4.455-.181.65-.425.984-.776 1.56-.156.257-.757.614-1.264.614-.508 0-1.152-.357-1.308-.614z"/>
        <path id="mask" d="M26.858 1.5s.744 4.905.859 7.634a41.046 41.046 0 0 1-.098 4.858c-.158 2.06-.287 4.108-.632 6.146-.331 1.956-.752 3.897-1.196 5.83-.313 1.363-.887 3.108-1.261 4.455-.181.65-.425.984-.776 1.56-.156.257-.757.614-1.264.614-.508 0-1.152-.357-1.308-.614-.351-.576-.552-.91-.733-1.56-.374-1.347-.948-3.092-1.26-4.454-.445-1.934-.866-3.875-1.197-5.83-.345-2.039-.474-4.086-.632-6.147a41.045 41.045 0 0 1-.098-4.858c.115-2.73.825-7.633.825-7.633z"/>
    </g>
</svg>
