<svg xmlns="http://www.w3.org/2000/svg" viewBox="0 0 45 60">
    <g fill="none" stroke="#000" stroke-width=".265">
        <path id="glass" d="M12.95 50.597c-.462-.8-1.275-5.074-1.413-7.036-.812-11.487-.321-16.052-.321-22.068 0-2.594.346-7.145.428-8.419.082-1.272.203-2.546.296-3.817.1-1.353.23-2.704.366-4.054.154-1.54.497-4.47.4-4.632-.136-.227-.594-.251-.684-.003-.14.388-.34 2.974-.475 4.464-.115 1.266-.192 2.536-.284 3.804-.08 1.086-.16 2.172-.233 3.258-.083 1.254-.168 2.508-.233 3.764-.118 2.304-.204 4.61-.284 6.917-.068 1.967-.117 3.935-.168 5.903-.057 2.192-.162 4.383-.155 6.575.014 4.456-.002 8.924.4 13.362.17 1.867.425 3.733.846 5.559.227.98.395 2.012.9 2.882.483.83 1.525 1.774 1.965 2.108.501.38 1.828.468 1.828.468H28.85s1.327-.088 1.828-.468c.44-.334 1.482-1.277 1.964-2.108.506-.87.675-1.901.901-2.882.422-1.826.676-3.692.846-5.559.402-4.438.386-8.906.4-13.362.007-2.192-.098-4.383-.155-6.575-.051-1.968-.1-3.936-.168-5.903-.08-2.306-.166-4.613-.284-6.917-.065-1.256-.15-2.51-.233-3.764-.072-1.086-.153-2.172-.232-3.258-.093-1.268-.17-2.538-.285-3.804-.135-1.49-.334-4.076-.475-4.464-.09-.248-.548-.224-.684.003-.097.162.246 3.093.4 4.632.136 1.35.266 2.7.366 4.054.093 1.27.215 2.545.296 3.817.083 1.274.428 5.825.428 8.42 0 6.015.491 10.58-.32 22.067-.139 1.962-.952 6.236-1.414 7.036-1.622 2.81-7.166 2.558-9.54 2.592-2.373-.034-7.917.218-9.539-2.592z"/>
        <path id="mask" d="M32.353 2.096s.166 1.568.32 3.107c.136 1.35.266 2.7.366 4.054.093 1.27.215 2.545.296 3.817.083 1.274.428 5.825.428 8.42 0 6.015.491 10.58-.32 22.067-.139 1.962-.952 6.236-1.414 7.036-1.622 2.81-7.166 2.558-9.54 2.592-2.373-.034-7.917.218-9.539-2.592-.462-.8-1.275-5.074-1.413-7.036-.812-11.487-.321-16.052-.321-22.068 0-2.594.346-7.145.428-8.419.082-1.272.203-2.546.296-3.817.1-1.353.23-2.704.366-4.054.154-1.54.322-3.107.322-3.107z"/>
    </g>
</svg>