<svg xmlns="http://www.w3.org/2000/svg" viewBox="0 0 45 60">
    <g fill="none" stroke="#000" stroke-width=".265">
        <path id="glass" d="M17.336 43.437c-2.173-.75-4.531-1.597-6.036-3.335-1.519-1.754-2.204-4.205-2.461-6.51-.268-2.4.483-8.61 1.005-10.966.481-2.171 1.531-5.476 1.951-7.66.289-1.502.489-7.362.381-8.887-.13-1.854-1.14-5.275-1.238-5.436-.136-.227-.703-.27-.793-.022-.14.388 1.14 3.624 1.27 5.501.092 1.322-.084 6.976-.349 8.274-.378 1.86-1.269 4.86-1.757 6.692-.69 2.584-1.705 8.97-1.651 11.643.054 2.693.541 5.555 1.977 7.834 1.842 2.923 6.294 5.239 7.973 6.626 1.774 1.259 2.173 1.576 3.064 3.57.42.94 0 3.347 0 3.347s-.123.272-.51.756c-.323.258-.379 1.417-.379 1.417L9.348 58.578c-.581.29-.4 1.21-.4 1.21h27.103s.182-.92-.399-1.21l-10.435-2.297s-.056-1.159-.378-1.417c-.388-.484-.51-.756-.51-.756s-.42-2.407 0-3.347c.89-1.994 1.289-2.311 3.063-3.57 1.679-1.387 6.13-3.703 7.973-6.626 1.436-2.279 1.923-5.141 1.977-7.834.054-2.673-.962-9.06-1.65-11.643-.49-1.833-1.38-4.833-1.758-6.692-.265-1.298-.441-6.952-.349-8.274.13-1.877 1.41-5.113 1.27-5.5-.09-.25-.657-.206-.793.02-.097.162-1.108 3.583-1.238 5.437-.108 1.525.092 7.385.38 8.887.42 2.184 1.471 5.489 1.952 7.66.522 2.357 1.273 8.567 1.005 10.966-.257 2.305-.942 4.756-2.461 6.51-1.505 1.738-3.863 2.585-6.036 3.335-1.648.568-2.657.797-5.164.83-2.507-.033-3.516-.262-5.164-.83z"/>
        <path id="mask" d="M33.712 1.676s-.758 2.549-.888 4.403c-.108 1.525.092 7.385.38 8.887.42 2.184 1.471 5.489 1.952 7.66.522 2.357 1.273 8.567 1.005 10.966-.257 2.305-.942 4.756-2.461 6.51-1.505 1.738-3.863 2.585-6.036 3.335-1.648.568-2.657.797-5.164.83-2.507-.033-3.516-.262-5.164-.83-2.173-.75-4.531-1.597-6.036-3.335-1.519-1.754-2.204-4.205-2.461-6.51-.268-2.4.483-8.61 1.005-10.966.481-2.171 1.531-5.476 1.951-7.66.289-1.502.489-7.362.381-8.887-.13-1.854-.92-4.403-.92-4.403z"/>
    </g>
</svg>