<svg xmlns="http://www.w3.org/2000/svg" viewBox="0 0 45 60">
    <g fill="none" stroke="#000" stroke-width=".265">
        <path id="glass" d="M14.626 36.964c-3.454-5.296-4.115-8.74-4.1-14.108 0 0-1.228-.741-2.645-.683-1.445.06-2.374-.245-3.695 2.274-.43.82-.557 2.726-.388 4.082.27 2.16.806 4.475 2.196 6.15 1.465 1.763 3.654 3.33 5.943 3.462.977.056 2.689-1.177 2.689-1.177zM10.712 19.56c.082-1.657.628-5.34.486-6.993-.11-1.275-.454-2.519-.71-3.772-.35-1.706-1.268-4.713-1.127-5.1.09-.249.547-.224.683.003.097.161.838 3.297 1.184 4.962.264 1.27.535 2.542.68 3.83.305 2.724-.077 4.65-.228 7.387-.177 3.216-.631 5.768.076 8.56 1.479 5.845 3.025 7.08 5.128 9.674.736.908 1.807 2.336 2.848 2.867 1.009.514 1.81.723 2.758.723.947 0 1.748-.21 2.757-.723 1.04-.531 2.112-1.96 2.848-2.867 2.103-2.595 3.83-4.035 5.31-9.88.706-2.792.071-5.138-.106-8.354-.15-2.737-.533-4.663-.228-7.387.145-1.288.416-2.56.68-3.83.346-1.665 1.087-4.8 1.184-4.962.136-.227.593-.252.684-.003.14.387-.778 3.394-1.127 5.1-.257 1.253-.601 2.497-.711 3.772-.142 1.653-.009 3.32.073 4.978.138 2.784.91 5.554.702 8.334-.166 2.216-.723 4.42-1.541 6.485-.664 1.676-1.63 3.232-2.69 4.69-1.44 1.977-3.702 3.696-3.994 7.025-.269 3.07.483 3.827 1.614 5.28.512.656 1.349 1.084 2.085 1.472 1.216.64 3.768.717 3.833 1.778.043.703-.256.884-1.52 1.049-1.767.23-5.637.212-5.637.212h-8.433s-3.87.019-5.636-.212c-1.265-.165-1.564-.346-1.52-1.05.064-1.06 2.616-1.137 3.832-1.777.736-.388 1.574-.816 2.085-1.473 1.131-1.452 2.03-3.113 1.847-5.124-.091-1.003.132-1.586-1.307-3.563 0 0-5.253.225-7.678-.618-2.328-.81-4.52-2.147-5.857-4.218-1.393-2.158-2.294-3.937-2.456-6.648-.044-.725-.08-4.003.411-5.415.63-1.812 1.774-4.536 2.657-5.087.635-.397 2.144-.026 2.248-.026.103 0 .958 1.021 1.602 1.188.719.188 2.21-.287 2.21-.287z"/>
        <path id="mask" d="M10.218 4.31s.664 2.685 1.01 4.35c.264 1.27.535 2.542.68 3.83.305 2.724-.077 4.65-.228 7.387-.177 3.216-.631 5.768.076 8.56 1.479 5.845 3.025 7.08 5.128 9.674.736.908 1.807 2.336 2.848 2.867 1.009.514 1.81.723 2.758.723.947 0 1.748-.21 2.757-.723 1.04-.531 2.112-1.96 2.848-2.867 2.103-2.595 3.83-4.035 5.31-9.88.706-2.792.071-5.138-.106-8.354-.15-2.737-.533-4.663-.228-7.387.145-1.288.416-2.56.68-3.83.346-1.665 1.02-4.35 1.02-4.35z"/>
    </g>
</svg>