<svg xmlns="http://www.w3.org/2000/svg" viewBox="0 0 45 60">
    <g fill="none" stroke="#000" stroke-width=".265">
        <path id="mask" d="M43.664 1.152c-.008.258-.065 2.803-.69 4.233a10.443 10.443 0 0 1-3.396 4.217c-1.69 1.218-4.323.766-5.858 2.174-1.037.95-1.313 2.496-1.803 3.814-.989 2.665-.98 5.687-2.268 8.221-.705 1.388-1.227 2.27-2.906 3.657-1.775 1.259-1.88 1.056-4.253 1.086-2.374-.033-2.482.17-4.257-1.088-1.678-1.388-2.2-2.27-2.906-3.658-1.288-2.534-1.279-5.556-2.268-8.22-.489-1.32-.766-2.865-1.802-3.815-1.535-1.408-4.168-.956-5.859-2.174-1.464-1.054-2.667-2.566-3.394-4.217-.628-1.425-.646-3.706-.708-4.222 12.243.066 29.417.012 42.368-.009z"/>
        <path id="glass" d="M18.233 27.466c-1.678-1.388-2.2-2.27-2.906-3.658-1.288-2.534-1.279-5.556-2.268-8.22-.489-1.32-.766-2.865-1.802-3.815-1.535-1.408-4.168-.956-5.859-2.174a10.444 10.444 0 0 1-3.394-4.217C1.32 3.822 1.347.888 1.25.727 1.114.5.547.457.457.706c-.14.387.09 3.475.85 5.203.726 1.652 1.93 3.163 3.395 4.218 1.69 1.217 4.323.765 5.858 2.173 1.037.95 1.314 2.496 1.803 3.815.989 2.665.972 5.69 2.268 8.22a15.047 15.047 0 0 0 3.874 4.82c1.775 1.258 2.173 2.572 2.173 3.024v20.76s-.652.272-1.04.756c-.322.259-.377 1.418-.377 1.418L8.825 58.467c-.58.29-.399 1.21-.399 1.21h28.127s.182-.92-.4-1.21l-10.435-3.354s-.055-1.16-.378-1.418c-.387-.484-1.04-.756-1.04-.756V32.18c0-.452.4-1.766 2.174-3.024a15.047 15.047 0 0 0 3.875-4.82c1.295-2.53 1.279-5.555 2.267-8.22.49-1.319.766-2.864 1.803-3.815 1.535-1.408 4.168-.956 5.858-2.173 1.465-1.055 2.669-2.566 3.395-4.218.76-1.728.991-4.816.85-5.203-.09-.249-.657-.206-.793.02-.097.162-.07 3.096-.753 4.656a10.444 10.444 0 0 1-3.395 4.217c-1.69 1.218-4.324.766-5.859 2.174-1.036.95-1.313 2.496-1.802 3.814-.99 2.665-.98 5.687-2.268 8.221-.706 1.388-1.228 2.27-2.906 3.658-1.775 1.258-2.792 1.088-4.256 1.088-1.465 0-2.482.17-4.257-1.088z"/>
    </g>
</svg>