<svg xmlns="http://www.w3.org/2000/svg" viewBox="0 0 45 60">
    <g fill="none" stroke="#000" stroke-width=".265">
        <path id="glass" d="M22.5 28.15c-1.362 0-2.384-.002-3.575-1.596a51.397 51.397 0 0 1-2.006-2.91c-.839-1.305-1.594-2.66-2.388-3.991-.864-1.448-1.697-2.915-2.585-4.35-.85-1.372-1.756-2.708-2.623-4.07-1.275-2-2.431-4.08-3.794-6.022-.986-1.405-3.065-3.902-3.162-4.063-.136-.227-.703-.27-.794-.022-.14.388 2.36 3.138 3.464 4.76C6.301 7.74 7.45 9.671 8.65 11.568c.871 1.375 1.764 2.736 2.606 4.129a150.458 150.458 0 0 1 2.63 4.539c1.219 2.183 2.452 4.362 3.552 6.608 1.097 2.24 2.64 5.66 3.037 6.838 1.098 3.25 1.233 9.706 1.051 14.572-.065 1.74-.281 4.084-.763 5.165-.481 1.08-1.827 2.162-3.027 2.86-1.213.706-2.66.908-4.024 1.23-1.871.444-5.688.968-5.688.968-.58.29-.399 1.21-.399 1.21h29.75s.182-.92-.399-1.21c0 0-3.817-.524-5.688-.967-1.365-.323-2.811-.525-4.024-1.23-1.2-.699-2.546-1.78-3.027-2.861-.482-1.081-.698-3.426-.763-5.165-.182-4.866-.047-11.321 1.05-14.572.399-1.179 1.94-4.598 3.038-6.838 1.1-2.246 2.333-4.425 3.552-6.608a150.458 150.458 0 0 1 2.63-4.54c.842-1.392 1.735-2.753 2.606-4.128 1.201-1.897 2.35-3.828 3.613-5.684 1.104-1.621 3.604-4.371 3.464-4.759-.09-.248-.658-.205-.794.022-.097.161-2.176 2.658-3.162 4.063-1.363 1.942-2.519 4.021-3.794 6.022-.867 1.362-1.773 2.698-2.623 4.07-.888 1.435-1.721 2.902-2.585 4.35-.794 1.331-1.55 2.686-2.388 3.99a51.397 51.397 0 0 1-2.006 2.911c-1.19 1.594-2.213 1.595-3.575 1.595"/>
        <path id="mask" d="M22.5 28.15c1.362 0 2.384-.002 3.575-1.596.682-.913 1.369-1.92 2.006-2.91.839-1.305 1.594-2.66 2.388-3.991.864-1.448 1.697-2.915 2.585-4.35.85-1.372 1.756-2.708 2.623-4.07 1.275-2 2.446-4.07 3.794-6.022.807-1.169 2.47-3.24 2.567-3.402L2.846 1.723S4.69 4.008 5.53 5.211c1.357 1.946 2.519 4.021 3.794 6.022.867 1.362 1.773 2.698 2.623 4.07.888 1.435 1.721 2.902 2.585 4.35.794 1.331 1.55 2.686 2.388 3.99a51.397 51.397 0 0 0 2.006 2.911c1.19 1.594 2.213 1.595 3.575 1.595"/>
    </g>
</svg>