<svg xmlns="http://www.w3.org/2000/svg" viewBox="0 0 45 60">
    <g fill="none" stroke="#000" stroke-width=".265">
        <path id="glass" d="M18.228 26.275c-.681-.913-1.435-2.007-2.006-2.767-1.12-1.49-2.254-3.323-3.172-4.696-.918-1.373-1.484-2.504-2.35-3.8-.868-1.298-1.995-3.289-2.858-4.605-.863-1.317-1.529-2.458-2.33-3.803-.8-1.344-2.896-5.086-2.993-5.248-.136-.226-.703-.27-.794-.02-.14.387 2.288 4.502 3.155 5.99.867 1.487 1.638 2.615 2.523 3.93.886 1.316 2.024 3.34 2.793 4.476.769 1.137.89 1.512 1.835 2.962.945 1.45 2.448 4.405 3.817 6.206 1.369 1.802 3.436 7.803 3.834 8.982 1.937 5.737 1.316 9.232 1.58 14.373.165 3.216-.312 4.084-.794 5.165-.482 1.08-1.042 1.599-1.703 2.019-.662.42-.369.198-1.966.903-1.597.704-6.95 2.136-6.95 2.136-.582.29-.4 1.21-.4 1.21h26.102s.182-.92-.4-1.21c0 0-5.625-1.402-7.214-2.136-1.59-.735-1.11-.507-1.701-.903-.591-.397-1.222-.965-1.704-2.046-.482-1.08-.959-1.922-.794-5.138.264-5.14-.357-8.636 1.58-14.373.398-1.18 2.465-7.18 3.834-8.982 1.37-1.801 2.534-4.237 3.817-6.206.607-.931 1.212-2.042 1.835-2.962.915-1.353 1.88-3.12 2.793-4.475.859-1.276 1.748-2.603 2.523-3.931.96-1.647 3.295-5.603 3.155-5.99-.09-.25-.658-.206-.794.02-.097.162-2.142 3.82-2.993 5.248-.75 1.26-1.526 2.576-2.33 3.803-.921 1.405-1.923 3.207-2.857 4.604-.8 1.197-1.551 2.604-2.351 3.8-1.037 1.55-2.051 3.207-3.172 4.697-.571.76-1.43 1.841-2.139 2.767-1.181 1.544-2.81 4.239-4.139 4.255-1.362 0-3.081-2.66-4.272-4.255z"/>
        <path id="mask" d="M42.261 1.72s-2.147 3.76-2.91 5.002c-.768 1.25-1.525 2.507-2.33 3.734-.92 1.406-1.923 3.318-2.857 4.716-.8 1.196-1.55 2.518-2.35 3.714-1.037 1.55-2.052 3.327-3.172 4.817-.572.76-1.04 1.395-1.742 2.26-.706.87-3.059 4.535-4.388 4.552-1.61-.02-3.92-3.847-4.652-4.811-.574-.758-1.203-1.639-1.775-2.398-1.12-1.49-2.135-3.338-3.171-4.887-.8-1.197-1.552-2.425-2.351-3.621-.934-1.398-1.936-3.124-2.858-4.53-.804-1.226-1.586-2.702-2.33-3.967-.72-1.227-2.592-4.581-2.592-4.581z"/>
    </g>
</svg>