<svg xmlns="http://www.w3.org/2000/svg" viewBox="0 0 45 60">
    <g fill="none" stroke="#000" stroke-width=".265">
        <path id="glass" d="M18.03 23.736c-.786-.536-1.237-1.446-1.808-2.205-1.12-1.49-2.135-3.057-3.172-4.607-.8-1.196-1.551-2.424-2.35-3.62-.935-1.398-1.937-2.75-2.858-4.156a102.474 102.474 0 0 1-2.33-3.733c-.851-1.43-2.367-4.178-2.464-4.34-.136-.226-.703-.27-.793-.02-.14.387 1.665 3.434 2.625 5.08.775 1.33 1.664 2.588 2.523 3.863.913 1.355 1.878 2.674 2.793 4.026.623.92 1.228 1.851 1.835 2.782 1.283 1.97 2.388 4.05 3.817 5.93 1.31 1.723 3.436 4.484 3.834 5.663 1.937 5.737 1.316 10.22 1.58 15.362.165 3.215 0 9.659 0 9.659s-1.052.272-1.44.756c-.322.258-.377 1.417-.377 1.417l-9.597 2.885c-.58.29-.399 1.21-.399 1.21h26.102s.182-.92-.4-1.21l-9.596-2.885s-.055-1.159-.378-1.417c-.387-.484-1.439-.756-1.439-.756s-.165-6.444 0-9.66c.264-5.14-.357-9.624 1.58-15.361.398-1.18 2.524-3.94 3.834-5.663 1.429-1.88 2.534-3.96 3.817-5.93.607-.93 1.212-1.862 1.835-2.782.915-1.352 1.88-2.67 2.793-4.026.859-1.275 1.748-2.534 2.523-3.862.96-1.647 2.766-4.694 2.625-5.081-.09-.25-.657-.206-.793.02-.097.162-1.613 2.91-2.464 4.34-.75 1.26-1.526 2.506-2.33 3.733-.921 1.406-1.923 2.758-2.857 4.155-.8 1.197-1.551 2.425-2.351 3.621-1.037 1.55-2.051 3.117-3.172 4.607-.571.76-1.022 1.67-1.808 2.205-1.294.881-1.818 1.41-4.47 1.444-2.652-.034-3.176-.563-4.47-1.444z"/>
        <path id="mask" d="M41.615 1.72s-1.5 2.498-2.264 3.74c-.768 1.249-1.525 2.506-2.33 3.733-.92 1.406-1.923 2.757-2.857 4.155-.8 1.196-1.55 2.424-2.35 3.62-1.037 1.55-2.052 3.117-3.172 4.607-.572.76-1.023 1.67-1.808 2.205-1.294.882-1.819 1.41-4.47 1.444-2.652-.034-3.177-.562-4.47-1.444-.786-.535-1.237-1.445-1.809-2.205-1.12-1.49-2.135-3.057-3.171-4.606-.8-1.197-1.552-2.425-2.351-3.621-.934-1.398-1.936-2.75-2.858-4.155a89.734 89.734 0 0 1-2.33-3.734C4.656 4.232 3.313 1.72 3.313 1.72z"/>
    </g>
</svg>