<svg xmlns="http://www.w3.org/2000/svg" viewBox="0 0 45 60">
    <g fill="none" stroke="#000" stroke-width=".265">
        <path id="glass" d="M17.336 34.05c-2.173-.75-4.531-1.598-6.036-3.336-1.519-1.753-2.204-4.204-2.461-6.51-.268-2.399.483-4.814 1.005-7.17.481-2.173 1.531-4.198 1.951-6.383.289-1.502.489-3.047.381-4.572-.13-1.854-1.14-5.275-1.238-5.436-.136-.227-.703-.27-.793-.022-.14.388 1.14 3.624 1.27 5.501.092 1.322-.084 2.661-.349 3.96-.378 1.859-1.269 3.58-1.757 5.413-.69 2.583-1.705 5.176-1.651 7.849.054 2.692.541 5.555 1.977 7.833 1.842 2.924 6.294 5.24 7.973 6.627 1.774 1.258 2.703 3.483 3.593 5.476.42.94 0 9.66 0 9.66s-.652.271-1.04.755c-.322.259-.378 1.418-.378 1.418L9.348 58.578c-.581.29-.4 1.21-.4 1.21h27.103s.182-.92-.399-1.21l-10.435-3.465s-.056-1.16-.378-1.418c-.388-.484-1.04-.756-1.04-.756s-.42-8.719 0-9.659c.89-1.993 1.819-4.218 3.593-5.476 1.679-1.388 6.13-3.703 7.973-6.627 1.436-2.278 1.923-5.14 1.977-7.833.054-2.673-.962-5.266-1.65-7.849-.49-1.833-1.38-3.554-1.758-5.414-.265-1.298-.441-2.637-.349-3.959.13-1.877 1.41-5.113 1.27-5.5-.09-.25-.657-.206-.793.02-.097.162-1.108 3.583-1.238 5.437-.108 1.525.092 3.07.38 4.572.42 2.185 1.471 4.21 1.952 6.382.522 2.357 1.273 4.772 1.005 7.17-.257 2.307-.942 4.758-2.461 6.511-1.505 1.738-3.863 2.586-6.036 3.335-1.648.569-2.657.797-5.164.83-2.507-.033-3.516-.261-5.164-.83z"/>
        <path id="path" d="M11.238 1.643s.844 2.927.938 4.436c.096 1.526-.092 3.07-.38 4.572-.42 2.185-1.471 4.21-1.952 6.382-.522 2.357-1.273 4.772-1.005 7.17.257 2.307.942 4.758 2.461 6.511 1.505 1.738 3.863 2.586 6.036 3.335 1.648.569 2.657.797 5.164.83 2.507-.033 3.516-.261 5.164-.83 2.173-.75 4.531-1.597 6.036-3.334 1.519-1.754 2.204-4.205 2.461-6.511.268-2.399-.483-4.814-1.005-7.17-.481-2.173-1.531-4.198-1.951-6.383-.289-1.502-.477-3.046-.381-4.572.094-1.509.938-4.436.938-4.436z"/>
    </g>
</svg>