<svg xmlns="http://www.w3.org/2000/svg" id="svg8" viewBox="0 0 45 60">
    <g fill="none" stroke="#000" stroke-width=".265">
        <path id="glass" d="M24.75 33.055c.999-1.338 1.273-2.066 1.576-3.389.292-1.274.215-2.614.188-3.921-.03-1.518.115-3.037.169-4.555.048-1.363.16-3.41.375-4.757.365-2.298.64-3.89 1.282-6.126.634-2.21 2.175-6.35 2.272-6.511.136-.227.704-.27.794-.022.14.388-1.517 4.38-2.274 6.57-.482 1.39-.895 3.799-1.18 5.243-.357 1.817-.506 2.626-.574 4.476-.073 1.98-.337 6.56-.103 8.528.552 4.663-.27 4.13-1.698 6.01-1.31 1.724-1.421 1.996-1.769 3.732-.466 2.33-.395 6.018-.396 8.394-.002 2.234-.189 4.528.365 6.693.24.94.576 1.935 1.257 2.627.623.633 1.56.864 2.386 1.19 1.155.454 3.192.868 3.572 1.058.581.29.399 1.21.399 1.21H13.588s-.182-.92.4-1.21c.379-.19 2.416-.604 3.571-1.059.827-.325 1.763-.556 2.386-1.189.681-.692 1.017-1.687 1.257-2.627.554-2.165.367-4.459.366-6.693-.002-2.376.07-6.064-.397-8.394-.347-1.736-.459-2.008-1.769-3.732-1.428-1.88-2.102-1.24-1.697-6.01.167-1.974.05-6.548-.006-8.528-.053-1.85-.227-2.658-.575-4.476-.276-1.44-.642-3.86-1.13-5.243-.771-2.187-2.561-6.134-2.42-6.52.09-.25.657-.207.793.02.097.162 1.767 4.257 2.419 6.463.658 2.228.876 3.83 1.233 6.126.21 1.348.341 3.393.375 4.757.037 1.52.118 3.036.07 4.555-.04 1.306-.102 2.647.19 3.921.302 1.323.576 2.051 1.575 3.39.41.547 1.442.683 2.26.683.82 0 1.852-.136 2.261-.684z"/>
        <path id="mask" d="M14.708 4.613s1.426 3.488 2.078 5.694c.658 2.228.876 3.83 1.233 6.126.21 1.348.341 3.393.375 4.757.037 1.52.118 3.036.07 4.555-.04 1.306-.102 2.647.19 3.921.302 1.323.576 2.051 1.575 3.39.41.547 1.442.683 2.26.683.82 0 1.852-.136 2.261-.684.999-1.338 1.273-2.066 1.576-3.389.292-1.274.215-2.614.188-3.921-.03-1.518.115-3.037.169-4.555.048-1.363.16-3.41.375-4.757.365-2.298.64-3.89 1.282-6.126.634-2.21 1.98-5.718 1.98-5.718z"/>
    </g>
</svg>