<svg xmlns="http://www.w3.org/2000/svg" viewBox="0 0 45 60">
    <g fill="none" stroke="#000" stroke-width=".265">
        <path id="glass" d="M14.777 56.446s-2.372-.048-3.548-.185c-1.228-.144-2.668.087-3.648-.667-.768-.59-1.13-1.783-1.24-2.627-.17-1.327-.298-3.178-.298-3.178l-.421-3.337-.655-6.384-.702-7.15-.608-5.285-.654-6.058-.608-5.202-.421-4.192s-.856-5.986-.716-6.374c.09-.248.657-.205.793.021.097.162.825 6.456.825 6.456l.44 4.188.579 5.193 1.368 11.356S6.553 45.7 7.768 47.5c.613.91 2.118 1.24 3.294 1.528 3.703.909 7.614.539 11.428.539 3.813 0 7.724.37 11.427-.539 1.176-.288 2.681-.618 3.294-1.527 1.215-1.8 2.505-14.481 2.505-14.481l1.369-11.356.579-5.193.44-4.188s.727-6.294.824-6.456c.136-.226.703-.27.793-.02.14.387-.715 6.373-.715 6.373l-.421 4.192-.608 5.202-.655 6.058-.608 5.285-.702 7.15-.655 6.384-.42 3.337s-.129 1.851-.3 3.178c-.108.844-.47 2.037-1.238 2.627-.98.754-2.42.523-3.648.667-1.177.137-3.549.185-3.549.185z"/>
        <path id="mask" d="M42.647 7.743l-.544 4.541-.44 4.188-.578 5.193-1.37 11.356S38.427 45.7 37.212 47.5c-.613.91-2.118 1.24-3.294 1.528-3.703.909-7.614.539-11.427.539-3.814 0-7.725.37-11.428-.539-1.176-.288-2.681-.618-3.294-1.527-1.215-1.8-2.505-14.481-2.505-14.481L3.895 21.665l-.58-5.193-.44-4.188-.51-4.57z"/>
    </g>
</svg>