<svg xmlns="http://www.w3.org/2000/svg" viewBox="0 0 45 60">
    <g fill="none" stroke="#000" stroke-width=".265">
        <path id="glass" d="M10.436 48.669c-3.308-.764-4.16-3.018-5.007-4.862-.906-1.974-1.849-7.92-2.224-11.956-.31-3.334-.114-6.698-.012-10.045.043-1.406.1-2.814.263-4.211.156-1.344.382-2.682.683-4 .341-1.498 1.367-4.266 1.27-4.428-.136-.227-.703-.27-.793-.02-.14.386-.92 2.753-1.251 4.164-.279 1.192-.462 2.406-.614 3.62-.16 1.267-.225 2.544-.312 3.818-.114 1.685-.23 3.371-.272 5.06-.047 1.87-.027 3.742.02 5.613.076 3.087.233 6.894.428 9.254 0 0 .196 3.815.471 5.702.2 1.373.468 2.742.857 4.074.331 1.13.61 1.992 1.25 3.306.697 1.429 1.196 1.833 2.013 2.538.668.575 1.457 1.165 2.292 1.321 1.713.32 6.495.326 6.495.326h12.993s4.782-.005 6.495-.326c.835-.156 1.624-.746 2.292-1.321.817-.705 1.316-1.11 2.013-2.538.64-1.314.92-2.175 1.25-3.306.39-1.332.657-2.7.857-4.074.275-1.887.471-5.702.471-5.702.195-2.36.352-6.167.429-9.254.047-1.87.067-3.743.02-5.613-.043-1.689-.16-3.375-.273-5.06-.086-1.274-.153-2.55-.312-3.818-.152-1.214-.335-2.428-.614-3.62-.33-1.411-1.11-3.778-1.25-4.165-.091-.249-.658-.206-.794.021-.097.162.929 2.93 1.27 4.427.301 1.319.527 2.657.683 4 .163 1.398.22 2.806.263 4.212.102 3.347.297 6.711-.012 10.045-.375 4.037-1.317 9.982-2.224 11.956-.847 1.844-1.7 4.098-5.007 4.862-4.256.982-10.691.946-12.053.946-1.363 0-7.798.036-12.054-.946z"/>
        <path id="mask" d="M5.097 10.391s-.704 2.118-.958 3.203a35.603 35.603 0 0 0-.683 4c-.163 1.398-.22 2.806-.263 4.212-.102 3.347-.297 6.711.012 10.045.375 4.037 1.318 9.982 2.224 11.956.847 1.844 1.7 4.098 5.007 4.862 4.256.982 10.691.946 12.054.946 1.362 0 7.797.036 12.053-.946 3.308-.764 4.16-3.018 5.007-4.862.907-1.974 1.85-7.92 2.224-11.956.31-3.334.114-6.698.012-10.045-.043-1.406-.1-2.814-.263-4.211a35.393 35.393 0 0 0-.683-4c-.253-1.083-.96-3.194-.96-3.194z"/>
    </g>
</svg>