<svg xmlns="http://www.w3.org/2000/svg" viewBox="0 0 45 60">
    <g fill="none" stroke="#000" stroke-width=".265">
        <path id="glass" d="M16.345 54.087c-.436-.815-.52-16.518-.52-16.518s-.039-3.937-.142-5.902a292.93 292.93 0 0 0-1.256-15.535c-.216-2.041-.512-4.074-.801-6.106-.207-1.454-.447-2.902-.667-4.354-.19-1.26-.466-3.622-.563-3.783-.136-.227-.594-.252-.684-.003-.14.387.322 2.461.507 3.689.213 1.417.485 2.825.697 4.243.182 1.213.335 2.43.491 3.646.217 1.684.44 3.367.62 5.055.182 1.709.323 3.422.465 5.134.221 2.665.485 5.329.602 8 .207 4.752.17 14.27.17 14.27s-.255 4.347-.462 6.514c-.11 1.142-.345 2.272-.41 3.418-.035.615-.23 1.28.012 1.847.19.45.506.739 1.047 1.023.838.44 2.822.312 2.822.312h8.433s1.984.127 2.822-.312c.541-.284.857-.574 1.047-1.023.241-.566.047-1.232.012-1.847-.064-1.146-.3-2.276-.41-3.418-.207-2.167-.463-6.515-.463-6.515s-.036-9.517.171-14.269c.117-2.671.381-5.335.602-8 .142-1.712.283-3.425.465-5.134.18-1.688.403-3.371.62-5.055.156-1.216.31-2.433.49-3.646.213-1.418.485-2.826.699-4.243.185-1.228.647-3.302.506-3.689-.09-.249-.548-.224-.684.003-.096.161-.373 2.523-.563 3.783-.22 1.452-.46 2.9-.667 4.354-.288 2.032-.585 4.065-.801 6.106a292.93 292.93 0 0 0-1.256 15.535c-.103 1.965-.142 5.902-.142 5.902s-.083 15.703-.52 16.518c-.525.982-3.771 1.041-6.144 1.075-2.374-.034-5.62-.093-6.145-1.075z"/>
        <path id="mask" d="M32.419 2.766s-.209 1.646-.4 2.906c-.218 1.452-.459 2.9-.666 4.354-.288 2.032-.585 4.065-.801 6.106a292.93 292.93 0 0 0-1.256 15.535c-.103 1.965-.142 5.902-.142 5.902s-.083 15.703-.52 16.518c-.525.982-3.771 1.041-6.144 1.075-2.374-.034-5.62-.093-6.145-1.075-.436-.815-.52-16.518-.52-16.518s-.039-3.937-.142-5.902a292.93 292.93 0 0 0-1.256-15.535c-.216-2.041-.512-4.074-.801-6.106-.207-1.454-.447-2.902-.667-4.354-.19-1.26-.38-2.888-.38-2.888z"/>
    </g>
</svg>