<svg xmlns="http://www.w3.org/2000/svg" viewBox="0 0 45 60">
    <g fill="none" stroke="#000" stroke-width=".265">
        <path id="glass" d="M19.164 50.421c-.34-.698-.833-7.995-.833-7.995s-.577-6.76-.89-10.138c-.483-5.19-.947-10.383-1.523-15.563-.24-2.156-.562-4.302-.806-6.457-.156-1.378-.277-2.76-.422-4.14-.148-1.414-.363-4.078-.46-4.239-.136-.227-.594-.252-.684-.003-.14.387.256 2.92.404 4.377.138 1.362.284 2.723.452 4.082.165 1.334.383 2.661.547 3.996.26 2.12.467 4.246.693 6.37.209 1.955.404 3.91.611 5.866.188 1.77.42 3.535.572 5.309.518 6.07.828 12.156 1.151 18.239.08 1.5.374 3.73.195 4.504-.265 1.147-.997 1.933-2.292 2.687-.847.494-2.335.54-2.308 1.08.033.677 1.173.558 1.65.585a62.03 62.03 0 0 0 2.329.056c3.293.04 6.586.04 9.88 0 .776-.01 1.71-.022 2.328-.056.477-.027 1.617.092 1.65-.584.027-.54-1.46-.587-2.308-1.08-1.294-.755-2.027-1.54-2.292-2.688-.179-.775.115-3.004.195-4.504.324-6.083.633-12.17 1.151-18.24.152-1.773.384-3.538.572-5.308.207-1.955.403-3.911.61-5.866.227-2.124.434-4.25.694-6.37.164-1.335.382-2.662.547-3.996.168-1.359.314-2.72.452-4.082.148-1.458.544-3.99.404-4.377-.09-.249-.548-.224-.684.003-.097.161-.312 2.825-.46 4.239-.145 1.38-.265 2.762-.421 4.14-.245 2.155-.566 4.301-.806 6.457-.577 5.18-1.04 10.373-1.523 15.563-.314 3.378-.891 10.138-.891 10.138s-.492 7.297-.833 7.995c-.34.699-2.318.685-3.325.685-1.008 0-2.986.014-3.326-.685z"/>
        <path id="mask" d="M30.621 2.702s-.184 2.012-.332 3.426c-.145 1.38-.265 2.762-.421 4.14-.245 2.155-.566 4.301-.806 6.457-.577 5.18-1.04 10.373-1.523 15.563-.314 3.378-.891 10.138-.891 10.138s-.492 7.297-.833 7.995c-.34.699-2.318.685-3.325.685-1.008 0-2.986.014-3.326-.685-.34-.698-.833-7.995-.833-7.995s-.577-6.76-.89-10.138c-.483-5.19-.947-10.383-1.523-15.563-.24-2.156-.562-4.302-.806-6.457-.156-1.378-.277-2.76-.422-4.14-.148-1.414-.336-3.426-.336-3.426z"/>
    </g>
</svg>