<svg xmlns="http://www.w3.org/2000/svg" id="svg8" viewBox="0 0 45 60">
    <g fill="none" stroke="#000" stroke-width=".265">
        <path id="mask" d="M32.115 1.154c-.032.581-.083 2.991-.1 4.487-.015 1.406-.006 2.813 0 4.219v2.173l-.129 4.459c-.079 2.74-.482 23.036-1.294 34.524-.138 1.96-.29 5-.61 5.866-.524.845-5.12.554-7.492.587-2.374-.033-6.968.258-7.493-.587-.32-.867-.472-3.905-.61-5.866-.812-11.488-1.221-31.785-1.294-34.524l-.13-4.46V9.86c0-1.406.016-2.813 0-4.219-.016-1.5-.05-4.18-.1-4.503 7.1.11 15.605-.022 19.252.016z"/>
        <path id="glass" d="M14.997 56.882c-.32-.867-.472-3.905-.61-5.866-.812-11.488-1.215-31.785-1.294-34.524l-.13-4.46V9.86c0-1.406.021-2.813 0-4.219-.024-1.684-.05-4.89-.148-5.051-.136-.227-.703-.27-.793-.022-.14.388.035 3.734.042 5.6.005 1.407 0 2.813 0 4.218 0 .725-.012 1.45 0 2.174.021 1.358.094 2.715.129 4.073.057 2.288.07 4.577.129 6.865.05 1.951.12 3.902.193 5.852.077 2.02.259 6.058.259 6.058l.504 14.757.122 4.63.074 2.933c0 .936.387 1.102.827 1.436.501.38 1.828.468 1.828.468H28.85s1.327-.088 1.828-.468c.44-.334.828-.5.828-1.436l.073-2.934.122-4.629.505-14.757s.181-4.038.258-6.058c.074-1.95.143-3.9.193-5.852.06-2.288.072-4.577.13-6.865.034-1.358.107-2.715.129-4.073.011-.725 0-1.45 0-2.174 0-1.405-.006-2.811 0-4.217.006-1.867.182-5.213.041-5.6-.09-.25-.657-.206-.793.02-.097.162-.124 3.368-.148 5.052-.021 1.406 0 2.813 0 4.219v2.173l-.13 4.459c-.079 2.74-.482 23.036-1.294 34.524-.138 1.96-.29 5-.61 5.866-.524.845-5.12.554-7.492.587-2.374-.033-6.968.258-7.493-.587z"/>
    </g>
</svg>