<svg xmlns="http://www.w3.org/2000/svg" viewBox="0 0 45 60">
    <g fill="none" stroke="#000" stroke-width=".265">
        <path id="mask" d="M32.126 8.754c-.033.581-.083 2.991-.1 4.487-.016 1.406 0 2.812 0 4.218v2.173l-.13 4.46c-.078 2.74-.613 17.964-1.293 26.924-.15 1.96-.29 5-.61 5.866-.525.845-5.12.554-7.493.587-2.373-.033-6.968.258-7.493-.587-.32-.867-.46-3.906-.61-5.866-.68-8.96-1.215-24.185-1.294-26.924l-.129-4.46V17.46c0-1.406.016-2.812 0-4.218-.017-1.501-.051-4.18-.1-4.503 7.1.109 15.604-.022 19.252.016z"/>
        <path id="glass" d="M28.86 59.632s1.328-.088 1.829-.468c.44-.334.827-.5.827-1.436l.174-2.934.222-4.629.304-9.292s.176-4.677.258-7.016c.068-1.95.128-3.902.194-5.852.042-1.255.087-2.51.129-3.766.045-1.357.107-2.715.129-4.073.011-.724 0-1.449 0-2.173 0-1.406-.005-2.812 0-4.218.007-1.867.182-5.213.042-5.6-.09-.249-.658-.206-.794.021-.097.161-.123 3.367-.148 5.052-.02 1.406 0 2.812 0 4.218v2.173l-.13 4.46c-.078 2.739-.613 17.96-1.293 26.917-.15 1.96-.29 5-.61 5.866-.525.845-5.12.554-7.493.587-2.373-.033-6.968.258-7.493-.587-.32-.867-.46-3.906-.61-5.866-.68-8.957-1.215-24.178-1.294-26.918l-.129-4.459v-2.173c0-1.406.02-2.812 0-4.218-.025-1.685-.051-4.89-.148-5.052-.136-.227-.703-.27-.794-.021-.14.387.035 3.733.042 5.6.005 1.406 0 2.812 0 4.218 0 .724-.011 1.449 0 2.173.022 1.358.084 2.715.13 4.073.04 1.255.086 2.51.128 3.766.066 1.95.126 3.901.194 5.852.082 2.339.258 7.016.258 7.016l.504 9.292.122 4.63.074 2.933c0 .936.387 1.102.827 1.436.501.38 1.828.468 1.828.468zM12.466.464l2.301-.2 3.932 56.755-2.206.2z"/>
    </g>
</svg>