<svg xmlns="http://www.w3.org/2000/svg" viewBox="0 0 67 67">
    <circle cx="33" cy="33" r="28" fill="#fff"/>
    <path fill-rule="evenodd" d="M21.54 34.57c-.05 0 .6 1.36.61 1.36 1.41 2.52 4.13 4.08 8.72 4.52a3.84 3.84 0 0 0-1.55 2.48c-.83.53-2.48.7-3.77.3-1.8-.56-2.49-4.07-5.19-3.57-.58.11-.47.49.04.81.82.53 1.6 1.18 2.2 2.57.45 1.07 1.41 2.98 4.46 2.98 1.21 0 2.06-.14 2.06-.14l.03 3.8c0 1.22-1.69 1.56-1.69 2.15 0 .24.56.26 1 .26.9 0 2.73-.73 2.73-2l.02-5c0-1.3.7-1.72.7-1.72s.1 6.94-.16 7.87c-.3 1.1-.85.94-.85 1.43 0 .73 2.21.18 2.95-1.41.57-1.24.32-8.05.32-8.05l.6-.02s.04 3.12.02 4.55c-.03 1.47-.13 3.34.77 4.22.58.58 2.48 1.6 2.48.66 0-.54-1.04-.98-1.04-2.44v-6.71c.83 0 .7 2.2.7 2.2l.07 4.1s-.19 1.5 1.64 2.13c.65.22 2.03.28 2.1-.1.06-.37-1.67-.92-1.69-2.08 0-.7.04-1.12.04-4.18 0-3.07-.42-4.2-1.88-5.1 4.5-.46 7.3-1.56 8.65-4.5.11 0 .56-1.37.5-1.37.3-1.1.47-2.42.5-3.97 0-4.2-2.06-5.7-2.45-6.4.58-3.18-.1-4.63-.41-5.13-1.16-.4-4.04 1.04-5.62 2.07-2.56-.74-7.98-.67-10.01.19-3.76-2.64-5.74-2.24-5.74-2.24s-1.28 2.26-.34 5.57c-1.23 1.54-2.15 2.64-2.15 5.54 0 1.63.2 3.1.63 4.37zM34 64a30 30 0 1 1 0-60 30 30 0 0 1 0 60z" clip-rule="evenodd"/>
</svg>