<svg xmlns="http://www.w3.org/2000/svg" viewBox="0 0 67 67">
    <circle cx="34.12" cy="33.88" r="27.07" fill="#fff"/>
    <path fill-rule="evenodd" d="M44.18 17.94a8.83 8.83 0 0 0-8.6 10.84 25.02 25.02 0 0 1-18.21-9.2 8.83 8.83 0 0 0 2.73 11.8 8.8 8.8 0 0 1-4-1.1v.1a8.84 8.84 0 0 0 7.09 8.67 8.96 8.96 0 0 1-3.97.15 8.86 8.86 0 0 0 8.26 6.14 17.72 17.72 0 0 1-13.06 3.65A25.13 25.13 0 0 0 28 52.96c16.26 0 25.14-13.46 25.14-25.11 0-.38 0-.75-.03-1.13a17.84 17.84 0 0 0 4.42-4.58l-.09-.03c-1.59.7-3.28 1.17-5.07 1.39a8.9 8.9 0 0 0 3.88-4.9c-1.7 1-3.6 1.73-5.6 2.14a8.8 8.8 0 0 0-6.46-2.8zM34 4a30 30 0 1 0 0 60 30 30 0 0 0 0-60z" clip-rule="evenodd"/>
</svg>